<svg width="24" height="24" xmlns="http://www.w3.org/2000/svg">
 <g>
  <path id="svg_1" fill="#f44336" d="m14,13l2,0l0,-3l2,0c2.205999,0 4,-1.794 4,-4s-1.794001,-4 -4,-4s-4,1.794 -4,4l0,7zm2,-7c0,-1.103 0.896999,-2 2,-2s2,0.897 2,2c0,1.102 -0.896999,2 -2,2l-2,0l0,-2z"/>
  <path id="svg_2" fill="#ffc107" d="m18,14l-7,0l0,2l3,0l0,2c0,2.205999 1.794,4 4,4s4,-1.794001 4,-4s-1.794001,-4 -4,-4zm0,6c-1.103001,0 -2,-0.896999 -2,-2l0,-2l2,0c1.103001,0 2,0.896999 2,2c0,1.103001 -0.896999,2 -2,2z"/>
  <path id="svg_3" fill="#2196f3" d="m6,10l7,0l0,-2l-3,0l0,-2c0,-2.206 -1.794,-4 -4,-4s-4,1.794 -4,4s1.794,4 4,4zm0,-6c1.103,0 2,0.897 2,2l0,2l-2,0c-1.103,0 -2,-0.898 -2,-2c0,-1.103 0.897,-2 2,-2z"/>
  <path id="svg_4" fill="#4caf50" d="m10,11l-2,0l0,3l-2,0c-2.206,0 -4,1.794 -4,4s1.794,4 4,4s4,-1.794001 4,-4l0,-7zm-2,7c0,1.103001 -0.897,2 -2,2s-2,-0.896999 -2,-2c0,-1.103001 0.897,-2 2,-2l2,0l0,2z"/>
 </g>
</svg>